<mxfile host="app.diagrams.net" modified="2024-07-21T14:18:55.735Z" agent="Mozilla/5.0 (Windows NT 10.0; Win64; x64; rv:128.0) Gecko/20100101 Firefox/128.0" etag="3KRbHvFrz1B-lUlkpiJw" version="24.7.1" type="github">
  <diagram name="Page-1" id="2YBvvXClWsGukQMizWep">
    <mxGraphModel dx="1975" dy="1080" grid="0" gridSize="10" guides="1" tooltips="1" connect="1" arrows="1" fold="1" page="1" pageScale="1" pageWidth="850" pageHeight="1100" math="0" shadow="0">
      <root>
        <mxCell id="0" />
        <mxCell id="1" parent="0" />
        <mxCell id="aM9ryv3xv72pqoxQDRHE-1" value="CAPTEURS" style="shape=umlLifeline;perimeter=lifelinePerimeter;whiteSpace=wrap;html=1;container=0;dropTarget=0;collapsible=0;recursiveResize=0;outlineConnect=0;portConstraint=eastwest;newEdgeStyle={&quot;edgeStyle&quot;:&quot;elbowEdgeStyle&quot;,&quot;elbow&quot;:&quot;vertical&quot;,&quot;curved&quot;:0,&quot;rounded&quot;:0};" parent="1" vertex="1">
          <mxGeometry x="80" y="40" width="80" height="1060" as="geometry" />
        </mxCell>
        <mxCell id="aM9ryv3xv72pqoxQDRHE-5" value="ESP_0101" style="shape=umlLifeline;perimeter=lifelinePerimeter;whiteSpace=wrap;html=1;container=0;dropTarget=0;collapsible=0;recursiveResize=0;outlineConnect=0;portConstraint=eastwest;newEdgeStyle={&quot;edgeStyle&quot;:&quot;elbowEdgeStyle&quot;,&quot;elbow&quot;:&quot;vertical&quot;,&quot;curved&quot;:0,&quot;rounded&quot;:0};" parent="1" vertex="1">
          <mxGeometry x="200" y="40" width="80" height="1060" as="geometry" />
        </mxCell>
        <mxCell id="mSwZzA8xZLnXlub7NaoQ-1" value="&lt;div&gt;HUB01&lt;/div&gt;" style="shape=umlLifeline;perimeter=lifelinePerimeter;whiteSpace=wrap;html=1;container=0;dropTarget=0;collapsible=0;recursiveResize=0;outlineConnect=0;portConstraint=eastwest;newEdgeStyle={&quot;edgeStyle&quot;:&quot;elbowEdgeStyle&quot;,&quot;elbow&quot;:&quot;vertical&quot;,&quot;curved&quot;:0,&quot;rounded&quot;:0};" vertex="1" parent="1">
          <mxGeometry x="670" y="40" width="100" height="1060" as="geometry" />
        </mxCell>
        <mxCell id="mSwZzA8xZLnXlub7NaoQ-3" value="&lt;div&gt;ESP_0102&lt;/div&gt;" style="shape=umlLifeline;perimeter=lifelinePerimeter;whiteSpace=wrap;html=1;container=0;dropTarget=0;collapsible=0;recursiveResize=0;outlineConnect=0;portConstraint=eastwest;newEdgeStyle={&quot;edgeStyle&quot;:&quot;elbowEdgeStyle&quot;,&quot;elbow&quot;:&quot;vertical&quot;,&quot;curved&quot;:0,&quot;rounded&quot;:0};" vertex="1" parent="1">
          <mxGeometry x="320" y="40" width="80" height="1060" as="geometry" />
        </mxCell>
        <mxCell id="mSwZzA8xZLnXlub7NaoQ-5" value="ESP_0201" style="shape=umlLifeline;perimeter=lifelinePerimeter;whiteSpace=wrap;html=1;container=0;dropTarget=0;collapsible=0;recursiveResize=0;outlineConnect=0;portConstraint=eastwest;newEdgeStyle={&quot;edgeStyle&quot;:&quot;elbowEdgeStyle&quot;,&quot;elbow&quot;:&quot;vertical&quot;,&quot;curved&quot;:0,&quot;rounded&quot;:0};" vertex="1" parent="1">
          <mxGeometry x="440" y="40" width="80" height="1060" as="geometry" />
        </mxCell>
        <mxCell id="mSwZzA8xZLnXlub7NaoQ-7" value="&lt;div&gt;ESP_0202&lt;/div&gt;" style="shape=umlLifeline;perimeter=lifelinePerimeter;whiteSpace=wrap;html=1;container=0;dropTarget=0;collapsible=0;recursiveResize=0;outlineConnect=0;portConstraint=eastwest;newEdgeStyle={&quot;edgeStyle&quot;:&quot;elbowEdgeStyle&quot;,&quot;elbow&quot;:&quot;vertical&quot;,&quot;curved&quot;:0,&quot;rounded&quot;:0};" vertex="1" parent="1">
          <mxGeometry x="560" y="40" width="80" height="1060" as="geometry" />
        </mxCell>
        <mxCell id="mSwZzA8xZLnXlub7NaoQ-9" value="&lt;div&gt;HUB02&lt;/div&gt;" style="shape=umlLifeline;perimeter=lifelinePerimeter;whiteSpace=wrap;html=1;container=0;dropTarget=0;collapsible=0;recursiveResize=0;outlineConnect=0;portConstraint=eastwest;newEdgeStyle={&quot;edgeStyle&quot;:&quot;elbowEdgeStyle&quot;,&quot;elbow&quot;:&quot;vertical&quot;,&quot;curved&quot;:0,&quot;rounded&quot;:0};" vertex="1" parent="1">
          <mxGeometry x="790" y="40" width="100" height="1060" as="geometry" />
        </mxCell>
        <mxCell id="mSwZzA8xZLnXlub7NaoQ-11" value="GATEWAY" style="shape=umlLifeline;perimeter=lifelinePerimeter;whiteSpace=wrap;html=1;container=0;dropTarget=0;collapsible=0;recursiveResize=0;outlineConnect=0;portConstraint=eastwest;newEdgeStyle={&quot;edgeStyle&quot;:&quot;elbowEdgeStyle&quot;,&quot;elbow&quot;:&quot;vertical&quot;,&quot;curved&quot;:0,&quot;rounded&quot;:0};" vertex="1" parent="1">
          <mxGeometry x="912" y="40" width="100" height="1060" as="geometry" />
        </mxCell>
        <mxCell id="mSwZzA8xZLnXlub7NaoQ-14" value="" style="endArrow=classic;html=1;rounded=0;" edge="1" parent="1">
          <mxGeometry width="50" height="50" relative="1" as="geometry">
            <mxPoint x="924" y="441.6923076923076" as="sourcePoint" />
            <mxPoint x="764" y="466.30769230769215" as="targetPoint" />
          </mxGeometry>
        </mxCell>
        <mxCell id="mSwZzA8xZLnXlub7NaoQ-16" value="ask data hub01" style="shape=process;whiteSpace=wrap;html=1;backgroundOutline=1;" vertex="1" parent="1">
          <mxGeometry x="916" y="414" width="100" height="40" as="geometry" />
        </mxCell>
        <mxCell id="mSwZzA8xZLnXlub7NaoQ-17" value="&lt;div&gt;ask data esp_0101&lt;/div&gt;" style="shape=process;whiteSpace=wrap;html=1;backgroundOutline=1;" vertex="1" parent="1">
          <mxGeometry x="674" y="454" width="100" height="40" as="geometry" />
        </mxCell>
        <mxCell id="mSwZzA8xZLnXlub7NaoQ-19" value="&lt;div&gt;envoie moyennes, reset moyenne&lt;br&gt;&lt;/div&gt;" style="shape=process;whiteSpace=wrap;html=1;backgroundOutline=1;" vertex="1" parent="1">
          <mxGeometry x="184" y="494" width="100" height="40" as="geometry" />
        </mxCell>
        <mxCell id="mSwZzA8xZLnXlub7NaoQ-21" value="" style="endArrow=classic;html=1;rounded=0;entryX=1;entryY=0.25;entryDx=0;entryDy=0;exitX=0;exitY=0.5;exitDx=0;exitDy=0;" edge="1" parent="1" source="mSwZzA8xZLnXlub7NaoQ-17" target="mSwZzA8xZLnXlub7NaoQ-19">
          <mxGeometry width="50" height="50" relative="1" as="geometry">
            <mxPoint x="964" y="448" as="sourcePoint" />
            <mxPoint x="794" y="460" as="targetPoint" />
          </mxGeometry>
        </mxCell>
        <mxCell id="mSwZzA8xZLnXlub7NaoQ-22" value="&lt;div&gt;ask data esp_0102&lt;/div&gt;" style="shape=process;whiteSpace=wrap;html=1;backgroundOutline=1;" vertex="1" parent="1">
          <mxGeometry x="674" y="534" width="100" height="40" as="geometry" />
        </mxCell>
        <mxCell id="mSwZzA8xZLnXlub7NaoQ-24" value="envoie moyennes" style="shape=process;whiteSpace=wrap;html=1;backgroundOutline=1;" vertex="1" parent="1">
          <mxGeometry x="314" y="574" width="100" height="40" as="geometry" />
        </mxCell>
        <mxCell id="mSwZzA8xZLnXlub7NaoQ-25" value="send aggreg data to gateway" style="shape=process;whiteSpace=wrap;html=1;backgroundOutline=1;" vertex="1" parent="1">
          <mxGeometry x="674" y="614" width="100" height="40" as="geometry" />
        </mxCell>
        <mxCell id="mSwZzA8xZLnXlub7NaoQ-26" value="&lt;div&gt;ask data hub02&lt;/div&gt;" style="shape=process;whiteSpace=wrap;html=1;backgroundOutline=1;" vertex="1" parent="1">
          <mxGeometry x="914" y="654" width="100" height="40" as="geometry" />
        </mxCell>
        <mxCell id="mSwZzA8xZLnXlub7NaoQ-27" value="" style="endArrow=classic;html=1;rounded=0;entryX=0;entryY=0.25;entryDx=0;entryDy=0;exitX=1;exitY=0.75;exitDx=0;exitDy=0;" edge="1" parent="1" source="mSwZzA8xZLnXlub7NaoQ-19" target="mSwZzA8xZLnXlub7NaoQ-22">
          <mxGeometry width="50" height="50" relative="1" as="geometry">
            <mxPoint x="694" y="464" as="sourcePoint" />
            <mxPoint x="304" y="484" as="targetPoint" />
          </mxGeometry>
        </mxCell>
        <mxCell id="mSwZzA8xZLnXlub7NaoQ-28" value="" style="endArrow=classic;html=1;rounded=0;entryX=1;entryY=0.25;entryDx=0;entryDy=0;exitX=0;exitY=0.75;exitDx=0;exitDy=0;" edge="1" parent="1" source="mSwZzA8xZLnXlub7NaoQ-22" target="mSwZzA8xZLnXlub7NaoQ-24">
          <mxGeometry width="50" height="50" relative="1" as="geometry">
            <mxPoint x="704" y="474" as="sourcePoint" />
            <mxPoint x="314" y="494" as="targetPoint" />
          </mxGeometry>
        </mxCell>
        <mxCell id="mSwZzA8xZLnXlub7NaoQ-29" value="" style="endArrow=classic;html=1;rounded=0;exitX=1;exitY=0.75;exitDx=0;exitDy=0;" edge="1" parent="1" source="mSwZzA8xZLnXlub7NaoQ-24" target="mSwZzA8xZLnXlub7NaoQ-25">
          <mxGeometry width="50" height="50" relative="1" as="geometry">
            <mxPoint x="714" y="484" as="sourcePoint" />
            <mxPoint x="324" y="504" as="targetPoint" />
          </mxGeometry>
        </mxCell>
        <mxCell id="mSwZzA8xZLnXlub7NaoQ-30" value="" style="endArrow=classic;html=1;rounded=0;exitX=1;exitY=0.75;exitDx=0;exitDy=0;" edge="1" parent="1">
          <mxGeometry width="50" height="50" relative="1" as="geometry">
            <mxPoint x="764" y="644" as="sourcePoint" />
            <mxPoint x="922" y="666.7884615384614" as="targetPoint" />
          </mxGeometry>
        </mxCell>
        <mxCell id="mSwZzA8xZLnXlub7NaoQ-35" value="" style="endArrow=classic;html=1;rounded=0;exitX=0;exitY=0.75;exitDx=0;exitDy=0;" edge="1" parent="1" target="mSwZzA8xZLnXlub7NaoQ-37">
          <mxGeometry width="50" height="50" relative="1" as="geometry">
            <mxPoint x="922" y="684" as="sourcePoint" />
            <mxPoint x="654" y="754" as="targetPoint" />
          </mxGeometry>
        </mxCell>
        <mxCell id="mSwZzA8xZLnXlub7NaoQ-37" value="&lt;div&gt;ask data esp_0101&lt;/div&gt;" style="shape=process;whiteSpace=wrap;html=1;backgroundOutline=1;" vertex="1" parent="1">
          <mxGeometry x="794" y="694" width="100" height="40" as="geometry" />
        </mxCell>
        <mxCell id="mSwZzA8xZLnXlub7NaoQ-38" value="&lt;div&gt;envoie moyennes&lt;br&gt;&lt;/div&gt;" style="shape=process;whiteSpace=wrap;html=1;backgroundOutline=1;" vertex="1" parent="1">
          <mxGeometry x="434" y="734" width="100" height="40" as="geometry" />
        </mxCell>
        <mxCell id="mSwZzA8xZLnXlub7NaoQ-39" value="" style="endArrow=classic;html=1;rounded=0;entryX=1;entryY=0.25;entryDx=0;entryDy=0;exitX=0;exitY=0.5;exitDx=0;exitDy=0;" edge="1" parent="1" source="mSwZzA8xZLnXlub7NaoQ-37" target="mSwZzA8xZLnXlub7NaoQ-38">
          <mxGeometry width="50" height="50" relative="1" as="geometry">
            <mxPoint x="964" y="738" as="sourcePoint" />
            <mxPoint x="794" y="750" as="targetPoint" />
          </mxGeometry>
        </mxCell>
        <mxCell id="mSwZzA8xZLnXlub7NaoQ-40" value="&lt;div&gt;ask data esp_0102&lt;/div&gt;" style="shape=process;whiteSpace=wrap;html=1;backgroundOutline=1;" vertex="1" parent="1">
          <mxGeometry x="794" y="774" width="100" height="40" as="geometry" />
        </mxCell>
        <mxCell id="mSwZzA8xZLnXlub7NaoQ-41" value="envoie moyennes" style="shape=process;whiteSpace=wrap;html=1;backgroundOutline=1;" vertex="1" parent="1">
          <mxGeometry x="554" y="814" width="100" height="40" as="geometry" />
        </mxCell>
        <mxCell id="mSwZzA8xZLnXlub7NaoQ-42" value="send aggreg data to gateway" style="shape=process;whiteSpace=wrap;html=1;backgroundOutline=1;" vertex="1" parent="1">
          <mxGeometry x="794" y="854" width="100" height="40" as="geometry" />
        </mxCell>
        <mxCell id="mSwZzA8xZLnXlub7NaoQ-43" value="aggreg, send to cloud" style="shape=process;whiteSpace=wrap;html=1;backgroundOutline=1;" vertex="1" parent="1">
          <mxGeometry x="916" y="894" width="100" height="40" as="geometry" />
        </mxCell>
        <mxCell id="mSwZzA8xZLnXlub7NaoQ-44" value="" style="endArrow=classic;html=1;rounded=0;entryX=0;entryY=0.25;entryDx=0;entryDy=0;exitX=1;exitY=0.75;exitDx=0;exitDy=0;" edge="1" parent="1" source="mSwZzA8xZLnXlub7NaoQ-38" target="mSwZzA8xZLnXlub7NaoQ-40">
          <mxGeometry width="50" height="50" relative="1" as="geometry">
            <mxPoint x="694" y="754" as="sourcePoint" />
            <mxPoint x="304" y="774" as="targetPoint" />
          </mxGeometry>
        </mxCell>
        <mxCell id="mSwZzA8xZLnXlub7NaoQ-45" value="" style="endArrow=classic;html=1;rounded=0;entryX=1;entryY=0.25;entryDx=0;entryDy=0;exitX=0;exitY=0.75;exitDx=0;exitDy=0;" edge="1" parent="1" source="mSwZzA8xZLnXlub7NaoQ-40" target="mSwZzA8xZLnXlub7NaoQ-41">
          <mxGeometry width="50" height="50" relative="1" as="geometry">
            <mxPoint x="704" y="764" as="sourcePoint" />
            <mxPoint x="314" y="784" as="targetPoint" />
          </mxGeometry>
        </mxCell>
        <mxCell id="mSwZzA8xZLnXlub7NaoQ-46" value="" style="endArrow=classic;html=1;rounded=0;exitX=1;exitY=0.75;exitDx=0;exitDy=0;" edge="1" parent="1" source="mSwZzA8xZLnXlub7NaoQ-41" target="mSwZzA8xZLnXlub7NaoQ-42">
          <mxGeometry width="50" height="50" relative="1" as="geometry">
            <mxPoint x="714" y="774" as="sourcePoint" />
            <mxPoint x="324" y="794" as="targetPoint" />
          </mxGeometry>
        </mxCell>
        <mxCell id="mSwZzA8xZLnXlub7NaoQ-47" value="" style="endArrow=classic;html=1;rounded=0;exitX=1;exitY=0.75;exitDx=0;exitDy=0;" edge="1" parent="1" source="mSwZzA8xZLnXlub7NaoQ-42">
          <mxGeometry width="50" height="50" relative="1" as="geometry">
            <mxPoint x="694" y="784" as="sourcePoint" />
            <mxPoint x="924" y="895.25" as="targetPoint" />
          </mxGeometry>
        </mxCell>
        <mxCell id="mSwZzA8xZLnXlub7NaoQ-48" value="lecture capteurs, moyenne glissante jusqu&#39;à envoi" style="shape=process;whiteSpace=wrap;html=1;backgroundOutline=1;" vertex="1" parent="1">
          <mxGeometry x="184" y="156" width="120" height="60" as="geometry" />
        </mxCell>
        <mxCell id="mSwZzA8xZLnXlub7NaoQ-50" value="30 s" style="ellipse;whiteSpace=wrap;html=1;" vertex="1" parent="1">
          <mxGeometry x="199" y="98" width="82" height="37" as="geometry" />
        </mxCell>
        <mxCell id="mSwZzA8xZLnXlub7NaoQ-51" value="15 minutes" style="ellipse;whiteSpace=wrap;html=1;" vertex="1" parent="1">
          <mxGeometry x="921" y="365" width="82" height="37" as="geometry" />
        </mxCell>
        <mxCell id="mSwZzA8xZLnXlub7NaoQ-52" value="" style="endArrow=classic;startArrow=classic;html=1;rounded=0;entryX=0;entryY=0.5;entryDx=0;entryDy=0;" edge="1" parent="1" source="aM9ryv3xv72pqoxQDRHE-1" target="mSwZzA8xZLnXlub7NaoQ-48">
          <mxGeometry width="50" height="50" relative="1" as="geometry">
            <mxPoint x="108" y="232" as="sourcePoint" />
            <mxPoint x="158" y="182" as="targetPoint" />
          </mxGeometry>
        </mxCell>
        <mxCell id="mSwZzA8xZLnXlub7NaoQ-53" value="30 s" style="ellipse;whiteSpace=wrap;html=1;" vertex="1" parent="1">
          <mxGeometry x="199" y="227" width="82" height="37" as="geometry" />
        </mxCell>
      </root>
    </mxGraphModel>
  </diagram>
</mxfile>
